# xmcd CD database file
#
# Track frame offsets:
#	150
#	22297
#	42275
#	65775
#	87707
#	111605
#	130965
#	151267
#	169755
#	192905
#
# Disc length: 2836 seconds
#
# Revision: 5
# Processed by: cddbd v1.5.2PL0 Copyright (c) Steve Scherf et al.
# Submitted via: CDex 1.70beta2
#
DISCID=960b120a
DTITLE=大黒摩季 - LA.LA.LA
DYEAR=1995
DGENRE=JPop
TTITLE0=Tender Rain
TTITLE1=FIRE
TTITLE2=LOVIN' YOU
TTITLE3=いちばん近くにいてね
TTITLE4=あなたがいればそれだけでよかった
TTITLE5=Summer Breeze
TTITLE6=恋はメリーゴーランド ～Original Version～
TTITLE7=太陽をつかまえに行こう
TTITLE8=もう一度だけ・・・
TTITLE9=ら・ら・ら
EXTD=YEAR: 1995
EXTT0=
EXTT1=
EXTT2=
EXTT3=
EXTT4=
EXTT5=
EXTT6=
EXTT7=
EXTT8=
EXTT9=
PLAYORDER=
